<svg xmlns="http://www.w3.org/2000/svg" xmlns:xlink="http://www.w3.org/1999/xlink" width="300" zoomAndPan="magnify" viewBox="0 0 224.87999 187.499995" height="250" preserveAspectRatio="xMidYMid meet" version="1.0"><defs><g/><clipPath id="ff1f6fe4c4"><path d="M 0.238281 0 L 224.519531 0 L 224.519531 187 L 0.238281 187 Z M 0.238281 0 " clip-rule="nonzero"/></clipPath><clipPath id="50d296e972"><path d="M 108.171875 93.5 L 172.101562 93.5 L 172.101562 157.433594 L 108.171875 157.433594 Z M 108.171875 93.5 " clip-rule="nonzero"/></clipPath><clipPath id="1390a12b2a"><path d="M 140.136719 93.5 C 122.480469 93.5 108.171875 107.8125 108.171875 125.464844 C 108.171875 143.121094 122.480469 157.433594 140.136719 157.433594 C 157.789062 157.433594 172.101562 143.121094 172.101562 125.464844 C 172.101562 107.8125 157.789062 93.5 140.136719 93.5 " clip-rule="nonzero"/></clipPath></defs><g clip-path="url(#ff1f6fe4c4)"><path fill="#ffffff" d="M 0.238281 0 L 224.640625 0 L 224.640625 194.480469 L 0.238281 194.480469 Z M 0.238281 0 " fill-opacity="1" fill-rule="nonzero"/><path fill="#ffffff" d="M 0.238281 0 L 224.640625 0 L 224.640625 187 L 0.238281 187 Z M 0.238281 0 " fill-opacity="1" fill-rule="nonzero"/><path fill="#ffffff" d="M 0.238281 0 L 224.640625 0 L 224.640625 187 L 0.238281 187 Z M 0.238281 0 " fill-opacity="1" fill-rule="nonzero"/></g><g clip-path="url(#50d296e972)"><g clip-path="url(#1390a12b2a)"><path fill="#eaccc2" d="M 108.171875 93.5 L 172.101562 93.5 L 172.101562 157.433594 L 108.171875 157.433594 Z M 108.171875 93.5 " fill-opacity="1" fill-rule="nonzero"/></g></g><g fill="#292929" fill-opacity="1"><g transform="translate(42.631325, 156.959481)"><g><path d="M 39.5 1.734375 C 55.789062 1.734375 69.300781 -5.890625 86.105469 -32.570312 C 86.625 -33.4375 86.453125 -34.128906 85.585938 -34.652344 C 84.027344 -35.515625 82.988281 -33.4375 82.296875 -32.570312 C 71.554688 -16.804688 58.734375 -2.253906 40.019531 -2.425781 C 26.679688 -2.597656 25.988281 -16.460938 25.988281 -22.175781 C 25.988281 -40.367188 40.542969 -55.613281 61.503906 -61.503906 C 62.371094 -60.464844 63.582031 -59.773438 64.796875 -59.773438 C 66.703125 -59.773438 68.78125 -61.503906 67.570312 -63.238281 C 62.371094 -70.6875 60.984375 -78.308594 61.679688 -85.242188 C 63.929688 -85.414062 66.183594 -85.414062 68.609375 -85.414062 C 92.863281 -85.414062 107.589844 -94.769531 107.589844 -107.070312 C 107.589844 -117.984375 97.367188 -122.664062 85.414062 -122.664062 C 66.527344 -122.664062 53.707031 -107.9375 52.496094 -88.359375 C 21.308594 -84.375 17.5 -68.78125 15.074219 -63.238281 C 14.898438 -62.71875 13.6875 -59.945312 15.765625 -59.945312 C 17.5 -59.945312 17.84375 -61.503906 18.710938 -63.238281 C 23.214844 -72.246094 28.066406 -81.777344 52.324219 -84.546875 C 52.496094 -77.269531 56.480469 -69.300781 59.078125 -65.144531 C 40.019531 -62.890625 15.59375 -48.511719 15.59375 -22.175781 C 15.59375 -3.984375 30.320312 1.734375 39.5 1.734375 Z M 61.851562 -89.050781 C 63.238281 -106.203125 73.460938 -118.851562 86.105469 -118.851562 C 93.902344 -118.851562 102.390625 -116.078125 102.390625 -106.722656 C 102.390625 -95.808594 88.707031 -89.226562 68.609375 -89.226562 C 66.183594 -89.226562 63.929688 -89.226562 61.851562 -89.050781 Z M 61.851562 -89.050781 "/></g></g></g></svg>