<svg xmlns="http://www.w3.org/2000/svg" xmlns:xlink="http://www.w3.org/1999/xlink" width="600" zoomAndPan="magnify" viewBox="0 0 450 675.000002" height="900" preserveAspectRatio="xMidYMid meet" version="1.0"><defs><clipPath id="a7ad1a919d"><path d="M 0.332031 0 L 449.667969 0 L 449.667969 674 L 0.332031 674 Z M 0.332031 0 " clip-rule="nonzero"/></clipPath><clipPath id="a82790b228"><path d="M 0.332031 515.191406 L 173.996094 515.191406 L 173.996094 674 L 0.332031 674 Z M 0.332031 515.191406 " clip-rule="nonzero"/></clipPath><clipPath id="ee2dbc98d8"><path d="M 70.023438 515.191406 C 12.597656 515.191406 -33.949219 561.738281 -33.949219 619.164062 C -33.949219 676.585938 12.597656 723.136719 70.023438 723.136719 C 127.445312 723.136719 173.996094 676.585938 173.996094 619.164062 C 173.996094 561.738281 127.445312 515.191406 70.023438 515.191406 " clip-rule="nonzero"/></clipPath><clipPath id="fe12aae704"><path d="M 0.332031 535 L 147 535 L 147 674 L 0.332031 674 Z M 0.332031 535 " clip-rule="nonzero"/></clipPath><clipPath id="a027b9df94"><path d="M 56.617188 535 C 6.597656 535 -33.949219 577.117188 -33.949219 629.066406 C -33.949219 681.019531 6.597656 723.136719 56.617188 723.136719 C 106.636719 723.136719 147.1875 681.019531 147.1875 629.066406 C 147.1875 577.117188 106.636719 535 56.617188 535 " clip-rule="nonzero"/></clipPath><clipPath id="43e65bdc61"><path d="M 0.332031 133.339844 L 78.898438 133.339844 L 78.898438 263.746094 L 0.332031 263.746094 Z M 0.332031 133.339844 " clip-rule="nonzero"/></clipPath><clipPath id="9de26aa618"><path d="M 13.695312 133.339844 C -22.316406 133.339844 -51.507812 162.53125 -51.507812 198.542969 C -51.507812 234.554688 -22.316406 263.746094 13.695312 263.746094 C 49.707031 263.746094 78.898438 234.554688 78.898438 198.542969 C 78.898438 162.53125 49.707031 133.339844 13.695312 133.339844 " clip-rule="nonzero"/></clipPath><clipPath id="af64d7568f"><path d="M 0.332031 139.417969 L 72.820312 139.417969 L 72.820312 257.667969 L 0.332031 257.667969 Z M 0.332031 139.417969 " clip-rule="nonzero"/></clipPath><clipPath id="3778aa5e75"><path d="M 13.695312 139.417969 C -18.960938 139.417969 -45.429688 165.886719 -45.429688 198.542969 C -45.429688 231.195312 -18.960938 257.667969 13.695312 257.667969 C 46.347656 257.667969 72.820312 231.195312 72.820312 198.542969 C 72.820312 165.886719 46.347656 139.417969 13.695312 139.417969 " clip-rule="nonzero"/></clipPath><clipPath id="c091eed462"><path d="M 13.601562 156.265625 L 99.539062 156.265625 L 99.539062 235.402344 L 13.601562 235.402344 Z M 13.601562 156.265625 " clip-rule="nonzero"/></clipPath><clipPath id="d5aeb149bb"><path d="M 99.539062 195.832031 L 13.691406 235.402344 L 13.691406 156.265625 L 99.539062 195.832031 " clip-rule="nonzero"/></clipPath><clipPath id="2f4a6e8464"><path d="M 27.671875 198.53125 L 56.609375 198.53125 L 56.609375 227.46875 L 27.671875 227.46875 Z M 27.671875 198.53125 " clip-rule="nonzero"/></clipPath><clipPath id="f040c18fd9"><path d="M 42.140625 227.46875 C 50.128906 227.46875 56.609375 220.992188 56.609375 213 C 56.609375 205.011719 50.128906 198.53125 42.140625 198.53125 C 34.148438 198.53125 27.671875 205.011719 27.671875 213 C 27.671875 220.992188 34.148438 227.46875 42.140625 227.46875 " clip-rule="nonzero"/></clipPath><clipPath id="ab3945c37b"><path d="M 367.035156 0 L 421.097656 0 L 421.097656 44.933594 L 367.035156 44.933594 Z M 367.035156 0 " clip-rule="nonzero"/></clipPath><clipPath id="fe9317df9a"><path d="M 394.066406 -9.128906 C 379.136719 -9.128906 367.035156 2.972656 367.035156 17.902344 C 367.035156 32.832031 379.136719 44.933594 394.066406 44.933594 C 408.996094 44.933594 421.097656 32.832031 421.097656 17.902344 C 421.097656 2.972656 408.996094 -9.128906 394.066406 -9.128906 " clip-rule="nonzero"/></clipPath><clipPath id="69be82c9b2"><path d="M 286 514 L 449.667969 514 L 449.667969 674 L 286 674 Z M 286 514 " clip-rule="nonzero"/></clipPath><clipPath id="c45aaae77f"><path d="M 392.484375 465.785156 L 523.023438 563.542969 L 416.863281 705.300781 L 286.324219 607.546875 Z M 392.484375 465.785156 " clip-rule="nonzero"/></clipPath><clipPath id="ea492cac40"><path d="M 457.753906 514.664062 L 416.980469 705.148438 L 286.441406 607.390625 L 457.753906 514.664062 " clip-rule="nonzero"/></clipPath></defs><g clip-path="url(#a7ad1a919d)"><path fill="#ffffff" d="M 0.332031 0 L 449.667969 0 L 449.667969 681.492188 L 0.332031 681.492188 Z M 0.332031 0 " fill-opacity="1" fill-rule="nonzero"/><path fill="#ffffff" d="M 0.332031 0 L 449.667969 0 L 449.667969 674 L 0.332031 674 Z M 0.332031 0 " fill-opacity="1" fill-rule="nonzero"/><path fill="#ffffff" d="M 0.332031 0 L 449.667969 0 L 449.667969 674 L 0.332031 674 Z M 0.332031 0 " fill-opacity="1" fill-rule="nonzero"/></g><g clip-path="url(#a82790b228)"><g clip-path="url(#ee2dbc98d8)"><path fill="#292929" d="M -33.949219 515.191406 L 173.996094 515.191406 L 173.996094 723.136719 L -33.949219 723.136719 Z M -33.949219 515.191406 " fill-opacity="1" fill-rule="nonzero"/></g></g><g clip-path="url(#fe12aae704)"><g clip-path="url(#a027b9df94)"><path fill="#ffffff" d="M -33.949219 535 L 146.835938 535 L 146.835938 723.136719 L -33.949219 723.136719 Z M -33.949219 535 " fill-opacity="1" fill-rule="nonzero"/></g></g><g clip-path="url(#43e65bdc61)"><g clip-path="url(#9de26aa618)"><path fill="#292929" d="M -51.507812 133.339844 L 78.898438 133.339844 L 78.898438 263.746094 L -51.507812 263.746094 Z M -51.507812 133.339844 " fill-opacity="1" fill-rule="nonzero"/></g></g><g clip-path="url(#af64d7568f)"><g clip-path="url(#3778aa5e75)"><path fill="#ffffff" d="M -45.429688 139.417969 L 72.820312 139.417969 L 72.820312 257.667969 L -45.429688 257.667969 Z M -45.429688 139.417969 " fill-opacity="1" fill-rule="nonzero"/></g></g><g clip-path="url(#c091eed462)"><g clip-path="url(#d5aeb149bb)"><path fill="#bfc022" d="M 99.539062 156.265625 L 99.539062 235.402344 L 13.601562 235.402344 L 13.601562 156.265625 Z M 99.539062 156.265625 " fill-opacity="1" fill-rule="nonzero"/></g></g><g clip-path="url(#2f4a6e8464)"><g clip-path="url(#f040c18fd9)"><path fill="#eaccc2" d="M 56.609375 227.46875 L 27.671875 227.46875 L 27.671875 198.53125 L 56.609375 198.53125 Z M 56.609375 227.46875 " fill-opacity="1" fill-rule="nonzero"/></g></g><g clip-path="url(#ab3945c37b)"><g clip-path="url(#fe9317df9a)"><path fill="#eaccc2" d="M 367.035156 -9.128906 L 421.097656 -9.128906 L 421.097656 44.933594 L 367.035156 44.933594 Z M 367.035156 -9.128906 " fill-opacity="1" fill-rule="nonzero"/></g></g><path stroke-linecap="butt" transform="matrix(0.750566, 0, 0, 0.748891, 357.44546, 16.403799)" fill="none" stroke-linejoin="miter" d="M -0.000197044 0.999538 L 48.90041 0.999538 " stroke="#292929" stroke-width="2" stroke-opacity="1" stroke-miterlimit="4"/><g clip-path="url(#69be82c9b2)"><g clip-path="url(#c45aaae77f)"><g clip-path="url(#ea492cac40)"><path fill="#bfc022" d="M 392.484375 465.785156 L 523.023438 563.542969 L 416.863281 705.300781 L 286.324219 607.542969 Z M 392.484375 465.785156 " fill-opacity="1" fill-rule="nonzero"/></g></g></g></svg>