<svg xmlns="http://www.w3.org/2000/svg" xmlns:xlink="http://www.w3.org/1999/xlink" width="600" zoomAndPan="magnify" viewBox="0 0 450 749.999995" height="1000" preserveAspectRatio="xMidYMid meet" version="1.0"><defs><clipPath id="ebae42a6b4"><path d="M 0 83.707031 L 78.679688 83.707031 L 78.679688 214.308594 L 0 214.308594 Z M 0 83.707031 " clip-rule="nonzero"/></clipPath><clipPath id="694587657a"><path d="M 13.382812 83.707031 C -22.683594 83.707031 -51.917969 112.945312 -51.917969 149.007812 C -51.917969 185.070312 -22.683594 214.308594 13.382812 214.308594 C 49.445312 214.308594 78.679688 185.070312 78.679688 149.007812 C 78.679688 112.945312 49.445312 83.707031 13.382812 83.707031 " clip-rule="nonzero"/></clipPath><clipPath id="d0b2ee0002"><path d="M 0 89.792969 L 72.59375 89.792969 L 72.59375 208.222656 L 0 208.222656 Z M 0 89.792969 " clip-rule="nonzero"/></clipPath><clipPath id="3b440fd07e"><path d="M 13.382812 89.792969 C -19.320312 89.792969 -45.832031 116.304688 -45.832031 149.007812 C -45.832031 181.710938 -19.320312 208.222656 13.382812 208.222656 C 46.085938 208.222656 72.59375 181.710938 72.59375 149.007812 C 72.59375 116.304688 46.085938 89.792969 13.382812 89.792969 " clip-rule="nonzero"/></clipPath><clipPath id="cbbe883a5d"><path d="M 13.285156 109.378906 L 99.351562 109.378906 L 99.351562 188.632812 L 13.285156 188.632812 Z M 13.285156 109.378906 " clip-rule="nonzero"/></clipPath><clipPath id="20b10c3ce5"><path d="M 99.351562 149.007812 L 13.378906 188.632812 L 13.378906 109.378906 L 99.351562 149.007812 " clip-rule="nonzero"/></clipPath><clipPath id="386db73447"><path d="M 27.378906 159.648438 L 56.359375 159.648438 L 56.359375 188.625 L 27.378906 188.625 Z M 27.378906 159.648438 " clip-rule="nonzero"/></clipPath><clipPath id="40244704c3"><path d="M 41.867188 188.625 C 49.871094 188.625 56.359375 182.136719 56.359375 174.136719 C 56.359375 166.132812 49.871094 159.648438 41.867188 159.648438 C 33.867188 159.648438 27.378906 166.132812 27.378906 174.136719 C 27.378906 182.136719 33.867188 188.625 41.867188 188.625 " clip-rule="nonzero"/></clipPath><clipPath id="7677101ebd"><path d="M 367.246094 0 L 421.386719 0 L 421.386719 45 L 367.246094 45 Z M 367.246094 0 " clip-rule="nonzero"/></clipPath><clipPath id="c8a62eb0b1"><path d="M 394.316406 -9.144531 C 379.363281 -9.144531 367.246094 2.976562 367.246094 17.929688 C 367.246094 32.878906 379.363281 45 394.316406 45 C 409.269531 45 421.386719 32.878906 421.386719 17.929688 C 421.386719 2.976562 409.269531 -9.144531 394.316406 -9.144531 " clip-rule="nonzero"/></clipPath><clipPath id="066180f292"><path d="M 286 606 L 450 606 L 450 750 L 286 750 Z M 286 606 " clip-rule="nonzero"/></clipPath><clipPath id="554f9a1a63"><path d="M 392.730469 557.917969 L 523.464844 655.816406 L 417.148438 797.785156 L 286.414062 699.882812 Z M 392.730469 557.917969 " clip-rule="nonzero"/></clipPath><clipPath id="e286701663"><path d="M 458.097656 606.867188 L 417.265625 797.632812 L 286.53125 699.730469 L 458.097656 606.867188 " clip-rule="nonzero"/></clipPath></defs><rect x="-45" width="540" fill="#ffffff" y="-74.999999" height="899.999994" fill-opacity="1"/><rect x="-45" width="540" fill="#ffffff" y="-74.999999" height="899.999994" fill-opacity="1"/><rect x="-45" width="540" fill="#ffffff" y="-74.999999" height="899.999994" fill-opacity="1"/><g clip-path="url(#ebae42a6b4)"><g clip-path="url(#694587657a)"><path fill="#292929" d="M -51.917969 83.707031 L 78.679688 83.707031 L 78.679688 214.308594 L -51.917969 214.308594 Z M -51.917969 83.707031 " fill-opacity="1" fill-rule="nonzero"/></g></g><g clip-path="url(#d0b2ee0002)"><g clip-path="url(#3b440fd07e)"><path fill="#ffffff" d="M -45.832031 89.792969 L 72.59375 89.792969 L 72.59375 208.222656 L -45.832031 208.222656 Z M -45.832031 89.792969 " fill-opacity="1" fill-rule="nonzero"/></g></g><g clip-path="url(#cbbe883a5d)"><g clip-path="url(#20b10c3ce5)"><path fill="#bfc022" d="M 99.351562 109.378906 L 99.351562 188.632812 L 13.285156 188.632812 L 13.285156 109.378906 Z M 99.351562 109.378906 " fill-opacity="1" fill-rule="nonzero"/></g></g><g clip-path="url(#386db73447)"><g clip-path="url(#40244704c3)"><path fill="#eaccc2" d="M 56.359375 188.625 L 27.378906 188.625 L 27.378906 159.648438 L 56.359375 159.648438 Z M 56.359375 188.625 " fill-opacity="1" fill-rule="nonzero"/></g></g><g clip-path="url(#7677101ebd)"><g clip-path="url(#c8a62eb0b1)"><path fill="#eaccc2" d="M 367.246094 -9.144531 L 421.386719 -9.144531 L 421.386719 45 L 367.246094 45 Z M 367.246094 -9.144531 " fill-opacity="1" fill-rule="nonzero"/></g></g><path stroke-linecap="butt" transform="matrix(0.751678, 0, 0, 0.75, 357.641675, 17.928101)" fill="none" stroke-linejoin="miter" d="M -0.00139629 1.002116 L 48.899627 1.002116 " stroke="#292929" stroke-width="2" stroke-opacity="1" stroke-miterlimit="4"/><g clip-path="url(#066180f292)"><g clip-path="url(#554f9a1a63)"><g clip-path="url(#e286701663)"><path fill="#bfc022" d="M 392.730469 557.917969 L 523.464844 655.816406 L 417.148438 797.785156 L 286.414062 699.882812 Z M 392.730469 557.917969 " fill-opacity="1" fill-rule="nonzero"/></g></g></g></svg>