<svg xmlns="http://www.w3.org/2000/svg" xmlns:xlink="http://www.w3.org/1999/xlink" width="400" zoomAndPan="magnify" viewBox="0 0 300 299.999988" height="400" preserveAspectRatio="xMidYMid meet" version="1.0"><defs><g/><clipPath id="61f5959d5a"><path d="M 40.195312 42.410156 L 263.914062 42.410156 L 263.914062 266.128906 L 40.195312 266.128906 Z M 40.195312 42.410156 " clip-rule="nonzero"/></clipPath><clipPath id="2e06c2a845"><path d="M 152.054688 42.410156 C 90.277344 42.410156 40.195312 92.488281 40.195312 154.269531 C 40.195312 216.046875 90.277344 266.128906 152.054688 266.128906 C 213.832031 266.128906 263.914062 216.046875 263.914062 154.269531 C 263.914062 92.488281 213.832031 42.410156 152.054688 42.410156 " clip-rule="nonzero"/></clipPath></defs><g clip-path="url(#61f5959d5a)"><g clip-path="url(#2e06c2a845)"><path fill="#eaccc2" d="M 40.195312 42.410156 L 263.914062 42.410156 L 263.914062 266.128906 L 40.195312 266.128906 Z M 40.195312 42.410156 " fill-opacity="1" fill-rule="nonzero"/></g></g><g fill="#000000" fill-opacity="1"><g transform="translate(61.918495, 217.986822)"><g><path d="M 12.703125 -4.8125 C 12.703125 -3.21875 12.125 -1.972656 10.96875 -1.078125 C 9.8125 -0.191406 8.242188 0.25 6.265625 0.25 C 4.117188 0.25 2.46875 -0.0234375 1.3125 -0.578125 L 1.3125 -2.609375 C 2.050781 -2.296875 2.859375 -2.046875 3.734375 -1.859375 C 4.609375 -1.679688 5.476562 -1.59375 6.34375 -1.59375 C 7.738281 -1.59375 8.789062 -1.859375 9.5 -2.390625 C 10.207031 -2.921875 10.5625 -3.660156 10.5625 -4.609375 C 10.5625 -5.242188 10.4375 -5.757812 10.1875 -6.15625 C 9.9375 -6.550781 9.515625 -6.914062 8.921875 -7.25 C 8.335938 -7.59375 7.441406 -7.984375 6.234375 -8.421875 C 4.554688 -9.015625 3.351562 -9.722656 2.625 -10.546875 C 1.90625 -11.378906 1.546875 -12.457031 1.546875 -13.78125 C 1.546875 -15.175781 2.066406 -16.285156 3.109375 -17.109375 C 4.160156 -17.941406 5.550781 -18.359375 7.28125 -18.359375 C 9.070312 -18.359375 10.722656 -18.023438 12.234375 -17.359375 L 11.578125 -15.53125 C 10.085938 -16.15625 8.640625 -16.46875 7.234375 -16.46875 C 6.117188 -16.46875 5.242188 -16.226562 4.609375 -15.75 C 3.984375 -15.269531 3.671875 -14.609375 3.671875 -13.765625 C 3.671875 -13.140625 3.785156 -12.625 4.015625 -12.21875 C 4.253906 -11.820312 4.644531 -11.457031 5.1875 -11.125 C 5.738281 -10.789062 6.578125 -10.421875 7.703125 -10.015625 C 9.609375 -9.335938 10.914062 -8.609375 11.625 -7.828125 C 12.34375 -7.054688 12.703125 -6.050781 12.703125 -4.8125 Z M 12.703125 -4.8125 "/></g></g></g><g fill="#000000" fill-opacity="1"><g transform="translate(84.469613, 217.986822)"><g><path d="M 12.578125 0 L 2.484375 0 L 2.484375 -18.09375 L 12.578125 -18.09375 L 12.578125 -16.21875 L 4.59375 -16.21875 L 4.59375 -10.390625 L 12.09375 -10.390625 L 12.09375 -8.53125 L 4.59375 -8.53125 L 4.59375 -1.875 L 12.578125 -1.875 Z M 12.578125 0 "/></g></g></g><g fill="#000000" fill-opacity="1"><g transform="translate(107.206332, 217.986822)"><g><path d="M 2.484375 0 L 2.484375 -18.09375 L 4.59375 -18.09375 L 4.59375 -1.90625 L 12.578125 -1.90625 L 12.578125 0 Z M 2.484375 0 "/></g></g></g><g fill="#000000" fill-opacity="1"><g transform="translate(129.002698, 217.986822)"><g><path d="M 10.5 0 L 4.359375 -16.03125 L 4.25 -16.03125 C 4.375 -14.757812 4.4375 -13.253906 4.4375 -11.515625 L 4.4375 0 L 2.484375 0 L 2.484375 -18.09375 L 5.65625 -18.09375 L 11.390625 -3.171875 L 11.484375 -3.171875 L 17.265625 -18.09375 L 20.40625 -18.09375 L 20.40625 0 L 18.296875 0 L 18.296875 -11.65625 C 18.296875 -12.988281 18.351562 -14.441406 18.46875 -16.015625 L 18.375 -16.015625 L 12.1875 0 Z M 10.5 0 "/></g></g></g><g fill="#000000" fill-opacity="1"><g transform="translate(160.524305, 217.986822)"><g><path d="M 12.578125 0 L 2.484375 0 L 2.484375 -18.09375 L 12.578125 -18.09375 L 12.578125 -16.21875 L 4.59375 -16.21875 L 4.59375 -10.390625 L 12.09375 -10.390625 L 12.09375 -8.53125 L 4.59375 -8.53125 L 4.59375 -1.875 L 12.578125 -1.875 Z M 12.578125 0 "/></g></g></g><g fill="#000000" fill-opacity="1"><g transform="translate(183.26103, 217.986822)"><g><path d="M 10.234375 -16.46875 C 8.242188 -16.46875 6.671875 -15.804688 5.515625 -14.484375 C 4.367188 -13.160156 3.796875 -11.347656 3.796875 -9.046875 C 3.796875 -6.679688 4.347656 -4.851562 5.453125 -3.5625 C 6.566406 -2.269531 8.148438 -1.625 10.203125 -1.625 C 11.472656 -1.625 12.914062 -1.847656 14.53125 -2.296875 L 14.53125 -0.453125 C 13.269531 0.015625 11.722656 0.25 9.890625 0.25 C 7.222656 0.25 5.164062 -0.554688 3.71875 -2.171875 C 2.269531 -3.796875 1.546875 -6.097656 1.546875 -9.078125 C 1.546875 -10.941406 1.894531 -12.570312 2.59375 -13.96875 C 3.289062 -15.375 4.296875 -16.457031 5.609375 -17.21875 C 6.921875 -17.976562 8.472656 -18.359375 10.265625 -18.359375 C 12.160156 -18.359375 13.816406 -18.007812 15.234375 -17.3125 L 14.34375 -15.5 C 12.96875 -16.144531 11.597656 -16.46875 10.234375 -16.46875 Z M 10.234375 -16.46875 "/></g></g></g><g fill="#000000" fill-opacity="1"><g transform="translate(207.89082, 217.986822)"><g><path d="M 13.453125 0 L 1.015625 0 L 1.015625 -1.640625 L 10.625 -16.203125 L 1.3125 -16.203125 L 1.3125 -18.09375 L 13.171875 -18.09375 L 13.171875 -16.453125 L 3.578125 -1.90625 L 13.453125 -1.90625 Z M 13.453125 0 "/></g></g></g><g fill="#000000" fill-opacity="1"><g transform="translate(230.998727, 217.986822)"><g><path d="M 2.484375 0 L 2.484375 -18.09375 L 4.59375 -18.09375 L 4.59375 0 Z M 2.484375 0 "/></g></g></g><g fill="#000000" fill-opacity="1"><g transform="translate(121.881508, 236.820463)"><g><path d="M 6.640625 0 L 1.3125 0 L 1.3125 -9.546875 L 6.640625 -9.546875 L 6.640625 -8.5625 L 2.421875 -8.5625 L 2.421875 -5.484375 L 6.375 -5.484375 L 6.375 -4.5 L 2.421875 -4.5 L 2.421875 -1 L 6.640625 -1 Z M 6.640625 0 "/></g></g></g><g fill="#000000" fill-opacity="1"><g transform="translate(138.626335, 236.820463)"><g><path d="M 8.9375 -4.859375 C 8.9375 -3.285156 8.507812 -2.082031 7.65625 -1.25 C 6.800781 -0.414062 5.566406 0 3.953125 0 L 1.3125 0 L 1.3125 -9.546875 L 4.234375 -9.546875 C 5.722656 -9.546875 6.878906 -9.132812 7.703125 -8.3125 C 8.523438 -7.488281 8.9375 -6.335938 8.9375 -4.859375 Z M 7.765625 -4.828125 C 7.765625 -6.066406 7.453125 -7.003906 6.828125 -7.640625 C 6.203125 -8.273438 5.269531 -8.59375 4.03125 -8.59375 L 2.421875 -8.59375 L 2.421875 -0.953125 L 3.78125 -0.953125 C 5.101562 -0.953125 6.097656 -1.273438 6.765625 -1.921875 C 7.429688 -2.578125 7.765625 -3.546875 7.765625 -4.828125 Z M 7.765625 -4.828125 "/></g></g></g><g fill="#000000" fill-opacity="1"><g transform="translate(157.681971, 236.820463)"><g><path d="M 1.3125 0 L 1.3125 -9.546875 L 2.421875 -9.546875 L 2.421875 0 Z M 1.3125 0 "/></g></g></g><g fill="#000000" fill-opacity="1"><g transform="translate(170.719056, 236.820463)"><g><path d="M 4.25 0 L 3.140625 0 L 3.140625 -8.5625 L 0.125 -8.5625 L 0.125 -9.546875 L 7.28125 -9.546875 L 7.28125 -8.5625 L 4.25 -8.5625 Z M 4.25 0 "/></g></g></g><g fill="#000000" fill-opacity="1"><g transform="translate(95.76043, 175.247179)"><g><path d="M 27.558594 0 C 42.269531 0 56.835938 -3.140625 69.972656 -9.851562 C 70.972656 -10.425781 71.542969 -11.28125 71.542969 -12.421875 C 71.542969 -12.710938 71.398438 -13.136719 71.257812 -13.707031 C 70.683594 -14.707031 69.828125 -15.28125 68.6875 -15.28125 C 68.402344 -15.28125 67.972656 -15.136719 67.402344 -14.992188 C 54.976562 -8.855469 41.699219 -5.710938 27.988281 -5.710938 C 11.425781 -5.710938 6.425781 -11.566406 6.425781 -22.417969 C 6.425781 -32.128906 10.28125 -45.125 13.566406 -60.402344 C 19.277344 -61.117188 35.984375 -61.976562 40.554688 -62.6875 C 42.125 -62.832031 42.984375 -63.972656 42.984375 -65.542969 L 42.984375 -65.832031 C 42.695312 -67.402344 41.699219 -68.257812 40.125 -68.257812 L 39.699219 -68.257812 C 35.84375 -67.828125 19.847656 -66.828125 14.851562 -66.402344 L 20.421875 -92.535156 C 32.414062 -93.675781 43.980469 -94.675781 55.976562 -95.246094 C 57.546875 -95.390625 58.691406 -96.390625 58.691406 -97.960938 L 58.691406 -98.246094 C 58.546875 -99.816406 57.546875 -100.957031 55.976562 -100.957031 L 55.691406 -100.957031 C 44.269531 -100.386719 32.84375 -99.53125 21.5625 -98.386719 C 21.707031 -98.53125 21.707031 -98.816406 21.707031 -99.101562 C 22.132812 -100.671875 21.132812 -102.101562 19.5625 -102.53125 C 17.707031 -102.816406 16.566406 -102.101562 16.136719 -100.246094 L 15.707031 -97.816406 L 2.570312 -96.390625 C 1 -95.960938 0 -94.960938 0 -93.390625 L 0 -93.105469 C 0.144531 -91.535156 1.285156 -90.675781 2.855469 -90.675781 L 3.140625 -90.675781 L 14.421875 -91.960938 L 8.855469 -65.6875 C 7.855469 -65.542969 6.996094 -65.402344 5.996094 -65.402344 C 4.425781 -64.972656 3.570312 -63.972656 3.570312 -62.402344 L 3.570312 -62.117188 C 3.710938 -60.546875 4.855469 -59.691406 6.425781 -59.691406 L 7.566406 -59.832031 C 4.710938 -46.265625 0.855469 -33.128906 0.855469 -22.277344 C 0.855469 -9.140625 6.570312 0 27.558594 0 Z M 27.558594 0 "/></g></g></g><g fill="#000000" fill-opacity="1"><g transform="translate(147.011596, 179.776813)"><g><path d="M 30.050781 0.222656 C 46.96875 0.222656 56.316406 -12.910156 56.316406 -30.050781 C 56.316406 -37.839844 54.3125 -46.746094 50.082031 -55.425781 C 57.429688 -57.875 66.777344 -59.210938 77.460938 -59.210938 C 80.132812 -59.210938 83.25 -58.988281 86.144531 -58.765625 C 88.816406 -58.542969 90.820312 -60.546875 90.820312 -63.214844 C 90.820312 -65.664062 89.261719 -67.445312 86.8125 -67.667969 C 83.472656 -67.890625 80.355469 -68.113281 77.019531 -68.113281 C 64.550781 -68.113281 54.3125 -66.109375 45.632812 -63.4375 C 38.730469 -74.347656 29.828125 -83.695312 22.035156 -93.265625 C 14.691406 -102.839844 8.902344 -114.191406 8.902344 -125.097656 C 8.902344 -132 10.90625 -138.453125 16.25 -143.796875 C 20.925781 -148.46875 26.042969 -150.695312 31.832031 -150.695312 C 43.628906 -150.695312 54.3125 -141.125 57.429688 -127.324219 C 58.097656 -124.875 59.65625 -123.761719 61.882812 -123.761719 L 62.773438 -123.761719 C 65.21875 -124.429688 66.332031 -125.988281 66.332031 -128.214844 L 66.332031 -129.105469 C 62.773438 -147.800781 47.414062 -159.601562 31.832031 -159.601562 C 24.039062 -159.601562 16.25 -156.929688 9.792969 -150.027344 C 2.894531 -142.90625 0 -134.222656 0 -125.320312 C 0 -112.632812 6.011719 -99.054688 14.914062 -87.703125 C 22.257812 -78.128906 30.71875 -69.894531 37.171875 -60.324219 C 24.707031 -54.980469 10.683594 -45.410156 4.898438 -33.167969 C 3.117188 -29.382812 2.226562 -25.820312 2.226562 -22.703125 C 2.226562 -9.347656 15.136719 0.222656 30.050781 0.222656 Z M 38.730469 -11.128906 C 36.28125 -9.570312 33.167969 -8.902344 29.382812 -8.902344 C 20.480469 -8.902344 11.351562 -14.023438 11.351562 -22.703125 C 11.351562 -24.929688 11.796875 -27.15625 12.910156 -29.160156 C 18.253906 -39.84375 30.71875 -48.082031 41.625 -52.53125 C 44.964844 -45.632812 47.414062 -37.171875 47.414062 -29.382812 C 47.414062 -21.589844 44.964844 -14.691406 38.730469 -11.128906 Z M 38.730469 -11.128906 "/></g></g></g></svg>