<svg xmlns="http://www.w3.org/2000/svg" xmlns:xlink="http://www.w3.org/1999/xlink" width="400" zoomAndPan="magnify" viewBox="0 0 300 299.999988" height="400" preserveAspectRatio="xMidYMid meet" version="1.0"><defs><g/><clipPath id="222bea68a3"><path d="M 24.441406 24.441406 L 275.558594 24.441406 L 275.558594 275.558594 L 24.441406 275.558594 Z M 24.441406 24.441406 " clip-rule="nonzero"/></clipPath><clipPath id="b7ae37af00"><path d="M 150 24.441406 C 80.65625 24.441406 24.441406 80.65625 24.441406 150 C 24.441406 219.34375 80.65625 275.558594 150 275.558594 C 219.34375 275.558594 275.558594 219.34375 275.558594 150 C 275.558594 80.65625 219.34375 24.441406 150 24.441406 " clip-rule="nonzero"/></clipPath></defs><g clip-path="url(#222bea68a3)"><g clip-path="url(#b7ae37af00)"><path fill="#292929" d="M 24.441406 24.441406 L 275.558594 24.441406 L 275.558594 275.558594 L 24.441406 275.558594 Z M 24.441406 24.441406 " fill-opacity="1" fill-rule="nonzero"/></g></g><g fill="#ffffff" fill-opacity="1"><g transform="translate(81.108398, 224.358562)"><g><path d="M 32.859375 0 C 50.394531 0 67.761719 -3.746094 83.425781 -11.746094 C 84.617188 -12.429688 85.300781 -13.449219 85.300781 -14.8125 C 85.300781 -15.152344 85.128906 -15.664062 84.957031 -16.34375 C 84.277344 -17.535156 83.257812 -18.21875 81.894531 -18.21875 C 81.554688 -18.21875 81.042969 -18.046875 80.363281 -17.878906 C 65.550781 -10.554688 49.714844 -6.808594 33.371094 -6.808594 C 13.621094 -6.808594 7.660156 -13.789062 7.660156 -26.730469 C 7.660156 -38.308594 12.257812 -53.800781 16.175781 -72.019531 C 22.984375 -72.871094 42.90625 -73.890625 48.351562 -74.742188 C 50.226562 -74.914062 51.246094 -76.273438 51.246094 -78.148438 L 51.246094 -78.488281 C 50.90625 -80.363281 49.714844 -81.382812 47.84375 -81.382812 L 47.332031 -81.382812 C 42.734375 -80.871094 23.664062 -79.679688 17.707031 -79.167969 L 24.347656 -110.328125 C 38.648438 -111.6875 52.4375 -112.878906 66.742188 -113.5625 C 68.613281 -113.730469 69.976562 -114.921875 69.976562 -116.796875 L 69.976562 -117.136719 C 69.804688 -119.011719 68.613281 -120.371094 66.742188 -120.371094 L 66.402344 -120.371094 C 52.78125 -119.691406 39.160156 -118.667969 25.707031 -117.308594 C 25.878906 -117.476562 25.878906 -117.816406 25.878906 -118.160156 C 26.390625 -120.03125 25.199219 -121.734375 23.324219 -122.246094 C 21.113281 -122.585938 19.75 -121.734375 19.238281 -119.519531 L 18.726562 -116.625 L 3.066406 -114.921875 C 1.191406 -114.414062 0 -113.222656 0 -111.347656 L 0 -111.007812 C 0.171875 -109.136719 1.53125 -108.113281 3.40625 -108.113281 L 3.746094 -108.113281 L 17.195312 -109.644531 L 10.554688 -78.320312 C 9.363281 -78.148438 8.34375 -77.976562 7.152344 -77.976562 C 5.277344 -77.46875 4.257812 -76.273438 4.257812 -74.402344 L 4.257812 -74.0625 C 4.425781 -72.1875 5.789062 -71.167969 7.660156 -71.167969 L 9.023438 -71.335938 C 5.617188 -55.164062 1.023438 -39.5 1.023438 -26.558594 C 1.023438 -10.894531 7.832031 0 32.859375 0 Z M 32.859375 0 "/></g></g></g><g fill="#ffffff" fill-opacity="1"><g transform="translate(149.115272, 231.457705)"><g><path d="M 34.820312 0.257812 C 54.421875 0.257812 65.253906 -14.960938 65.253906 -34.820312 C 65.253906 -43.847656 62.933594 -54.164062 58.03125 -64.222656 C 66.542969 -67.058594 77.375 -68.605469 89.753906 -68.605469 C 92.851562 -68.605469 96.460938 -68.347656 99.8125 -68.089844 C 102.910156 -67.832031 105.230469 -70.152344 105.230469 -73.25 C 105.230469 -76.085938 103.425781 -78.148438 100.585938 -78.40625 C 96.71875 -78.664062 93.109375 -78.921875 89.238281 -78.921875 C 74.796875 -78.921875 62.933594 -76.601562 52.875 -73.507812 C 44.878906 -86.144531 34.5625 -96.976562 25.535156 -108.066406 C 17.023438 -119.15625 10.316406 -132.3125 10.316406 -144.949219 C 10.316406 -152.945312 12.636719 -160.425781 18.828125 -166.613281 C 24.246094 -172.03125 30.175781 -174.609375 36.882812 -174.609375 C 50.550781 -174.609375 62.933594 -163.519531 66.542969 -147.527344 C 67.316406 -144.691406 69.121094 -143.402344 71.699219 -143.402344 L 72.734375 -143.402344 C 75.570312 -144.175781 76.859375 -145.980469 76.859375 -148.558594 L 76.859375 -149.59375 C 72.734375 -171.257812 54.9375 -184.925781 36.882812 -184.925781 C 27.855469 -184.925781 18.828125 -181.832031 11.347656 -173.835938 C 3.351562 -165.582031 0 -155.523438 0 -145.207031 C 0 -130.507812 6.964844 -114.773438 17.28125 -101.621094 C 25.792969 -90.527344 35.59375 -80.984375 43.070312 -69.894531 C 28.628906 -63.707031 12.378906 -52.613281 5.675781 -38.429688 C 3.609375 -34.046875 2.578125 -29.917969 2.578125 -26.308594 C 2.578125 -10.832031 17.539062 0.257812 34.820312 0.257812 Z M 44.878906 -12.894531 C 42.039062 -11.089844 38.429688 -10.316406 34.046875 -10.316406 C 23.726562 -10.316406 13.152344 -16.25 13.152344 -26.308594 C 13.152344 -28.886719 13.667969 -31.464844 14.960938 -33.789062 C 21.148438 -46.167969 35.59375 -55.710938 48.230469 -60.867188 C 52.097656 -52.875 54.9375 -43.070312 54.9375 -34.046875 C 54.9375 -25.019531 52.097656 -17.023438 44.878906 -12.894531 Z M 44.878906 -12.894531 "/></g></g></g></svg>