<svg xmlns="http://www.w3.org/2000/svg" xmlns:xlink="http://www.w3.org/1999/xlink" width="600" zoomAndPan="magnify" viewBox="0 0 450 749.999995" height="1000" preserveAspectRatio="xMidYMid meet" version="1.0"><defs><clipPath id="d3625f031b"><path d="M 0 553.453125 L 173.917969 553.453125 L 173.917969 750 L 0 750 Z M 0 553.453125 " clip-rule="nonzero"/></clipPath><clipPath id="545d2e75f7"><path d="M 69.792969 553.453125 C 12.285156 553.453125 -34.335938 600.070312 -34.335938 657.578125 C -34.335938 715.085938 12.285156 761.707031 69.792969 761.707031 C 127.300781 761.707031 173.917969 715.085938 173.917969 657.578125 C 173.917969 600.070312 127.300781 553.453125 69.792969 553.453125 " clip-rule="nonzero"/></clipPath><clipPath id="8f1a0ba809"><path d="M 0 573.292969 L 147 573.292969 L 147 750 L 0 750 Z M 0 573.292969 " clip-rule="nonzero"/></clipPath><clipPath id="c1ee35c9a1"><path d="M 56.367188 573.292969 C 6.273438 573.292969 -34.335938 615.472656 -34.335938 667.5 C -34.335938 719.527344 6.273438 761.707031 56.367188 761.707031 C 106.460938 761.707031 147.070312 719.527344 147.070312 667.5 C 147.070312 615.472656 106.460938 573.292969 56.367188 573.292969 " clip-rule="nonzero"/></clipPath><clipPath id="8a7e6f4be9"><path d="M 0 83.707031 L 78.679688 83.707031 L 78.679688 214.308594 L 0 214.308594 Z M 0 83.707031 " clip-rule="nonzero"/></clipPath><clipPath id="939548c68b"><path d="M 13.382812 83.707031 C -22.683594 83.707031 -51.917969 112.945312 -51.917969 149.007812 C -51.917969 185.070312 -22.683594 214.308594 13.382812 214.308594 C 49.445312 214.308594 78.679688 185.070312 78.679688 149.007812 C 78.679688 112.945312 49.445312 83.707031 13.382812 83.707031 " clip-rule="nonzero"/></clipPath><clipPath id="c65fbfe470"><path d="M 0 89.792969 L 72.59375 89.792969 L 72.59375 208.222656 L 0 208.222656 Z M 0 89.792969 " clip-rule="nonzero"/></clipPath><clipPath id="18ec3b2f70"><path d="M 13.382812 89.792969 C -19.320312 89.792969 -45.832031 116.304688 -45.832031 149.007812 C -45.832031 181.710938 -19.320312 208.222656 13.382812 208.222656 C 46.085938 208.222656 72.59375 181.710938 72.59375 149.007812 C 72.59375 116.304688 46.085938 89.792969 13.382812 89.792969 " clip-rule="nonzero"/></clipPath><clipPath id="d176f68629"><path d="M 13.285156 109.378906 L 99.351562 109.378906 L 99.351562 188.632812 L 13.285156 188.632812 Z M 13.285156 109.378906 " clip-rule="nonzero"/></clipPath><clipPath id="4957b14766"><path d="M 99.351562 149.007812 L 13.378906 188.632812 L 13.378906 109.378906 L 99.351562 149.007812 " clip-rule="nonzero"/></clipPath><clipPath id="dec1f6f83a"><path d="M 27.378906 159.648438 L 56.359375 159.648438 L 56.359375 188.625 L 27.378906 188.625 Z M 27.378906 159.648438 " clip-rule="nonzero"/></clipPath><clipPath id="b75a605532"><path d="M 41.867188 188.625 C 49.871094 188.625 56.359375 182.136719 56.359375 174.136719 C 56.359375 166.132812 49.871094 159.648438 41.867188 159.648438 C 33.867188 159.648438 27.378906 166.132812 27.378906 174.136719 C 27.378906 182.136719 33.867188 188.625 41.867188 188.625 " clip-rule="nonzero"/></clipPath><clipPath id="4f7f9dd1e0"><path d="M 367.246094 0 L 421.386719 0 L 421.386719 45 L 367.246094 45 Z M 367.246094 0 " clip-rule="nonzero"/></clipPath><clipPath id="785baddf74"><path d="M 394.316406 -9.144531 C 379.363281 -9.144531 367.246094 2.976562 367.246094 17.929688 C 367.246094 32.878906 379.363281 45 394.316406 45 C 409.269531 45 421.386719 32.878906 421.386719 17.929688 C 421.386719 2.976562 409.269531 -9.144531 394.316406 -9.144531 " clip-rule="nonzero"/></clipPath><clipPath id="91e864f8f7"><path d="M 286 596 L 450 596 L 450 750 L 286 750 Z M 286 596 " clip-rule="nonzero"/></clipPath><clipPath id="66881b02a3"><path d="M 392.730469 547.640625 L 523.464844 645.542969 L 417.148438 787.511719 L 286.414062 689.609375 Z M 392.730469 547.640625 " clip-rule="nonzero"/></clipPath><clipPath id="8de9c99fd7"><path d="M 458.097656 596.59375 L 417.265625 787.359375 L 286.53125 689.457031 L 458.097656 596.59375 " clip-rule="nonzero"/></clipPath></defs><rect x="-45" width="540" fill="#ffffff" y="-74.999999" height="899.999994" fill-opacity="1"/><rect x="-45" width="540" fill="#ffffff" y="-74.999999" height="899.999994" fill-opacity="1"/><rect x="-45" width="540" fill="#ffffff" y="-74.999999" height="899.999994" fill-opacity="1"/><g clip-path="url(#d3625f031b)"><g clip-path="url(#545d2e75f7)"><path fill="#292929" d="M -34.335938 553.453125 L 173.917969 553.453125 L 173.917969 761.707031 L -34.335938 761.707031 Z M -34.335938 553.453125 " fill-opacity="1" fill-rule="nonzero"/></g></g><g clip-path="url(#8f1a0ba809)"><g clip-path="url(#c1ee35c9a1)"><path fill="#ffffff" d="M -34.335938 573.292969 L 146.71875 573.292969 L 146.71875 761.707031 L -34.335938 761.707031 Z M -34.335938 573.292969 " fill-opacity="1" fill-rule="nonzero"/></g></g><g clip-path="url(#8a7e6f4be9)"><g clip-path="url(#939548c68b)"><path fill="#292929" d="M -51.917969 83.707031 L 78.679688 83.707031 L 78.679688 214.308594 L -51.917969 214.308594 Z M -51.917969 83.707031 " fill-opacity="1" fill-rule="nonzero"/></g></g><g clip-path="url(#c65fbfe470)"><g clip-path="url(#18ec3b2f70)"><path fill="#ffffff" d="M -45.832031 89.792969 L 72.59375 89.792969 L 72.59375 208.222656 L -45.832031 208.222656 Z M -45.832031 89.792969 " fill-opacity="1" fill-rule="nonzero"/></g></g><g clip-path="url(#d176f68629)"><g clip-path="url(#4957b14766)"><path fill="#bfc022" d="M 99.351562 109.378906 L 99.351562 188.632812 L 13.285156 188.632812 L 13.285156 109.378906 Z M 99.351562 109.378906 " fill-opacity="1" fill-rule="nonzero"/></g></g><g clip-path="url(#dec1f6f83a)"><g clip-path="url(#b75a605532)"><path fill="#eaccc2" d="M 56.359375 188.625 L 27.378906 188.625 L 27.378906 159.648438 L 56.359375 159.648438 Z M 56.359375 188.625 " fill-opacity="1" fill-rule="nonzero"/></g></g><g clip-path="url(#4f7f9dd1e0)"><g clip-path="url(#785baddf74)"><path fill="#eaccc2" d="M 367.246094 -9.144531 L 421.386719 -9.144531 L 421.386719 45 L 367.246094 45 Z M 367.246094 -9.144531 " fill-opacity="1" fill-rule="nonzero"/></g></g><path stroke-linecap="butt" transform="matrix(0.751678, 0, 0, 0.75, 357.641675, 17.928101)" fill="none" stroke-linejoin="miter" d="M -0.00139629 1.002116 L 48.899627 1.002116 " stroke="#292929" stroke-width="2" stroke-opacity="1" stroke-miterlimit="4"/><g clip-path="url(#91e864f8f7)"><g clip-path="url(#66881b02a3)"><g clip-path="url(#8de9c99fd7)"><path fill="#bfc022" d="M 392.730469 547.640625 L 523.464844 645.542969 L 417.148438 787.511719 L 286.414062 689.609375 Z M 392.730469 547.640625 " fill-opacity="1" fill-rule="nonzero"/></g></g></g></svg>