<svg xmlns="http://www.w3.org/2000/svg" xmlns:xlink="http://www.w3.org/1999/xlink" width="800" zoomAndPan="magnify" viewBox="0 0 600 299.999988" height="400" preserveAspectRatio="xMidYMid meet" version="1.0"><defs><clipPath id="4655dc1892"><path d="M 416.644531 205.683594 L 600 205.683594 L 600 300 L 416.644531 300 Z M 416.644531 205.683594 " clip-rule="nonzero"/></clipPath><clipPath id="9f93384c13"><path d="M 555.480469 205.683594 C 478.800781 205.683594 416.644531 267.84375 416.644531 344.519531 C 416.644531 421.199219 478.800781 483.355469 555.480469 483.355469 C 632.15625 483.355469 694.316406 421.199219 694.316406 344.519531 C 694.316406 267.84375 632.15625 205.683594 555.480469 205.683594 " clip-rule="nonzero"/></clipPath><clipPath id="cca15d06ed"><path d="M 434.542969 218.910156 L 600 218.910156 L 600 300 L 434.542969 300 Z M 434.542969 218.910156 " clip-rule="nonzero"/></clipPath><clipPath id="892f34ce7e"><path d="M 555.480469 218.910156 C 488.6875 218.910156 434.542969 275.148438 434.542969 344.519531 C 434.542969 413.890625 488.6875 470.128906 555.480469 470.128906 C 622.269531 470.128906 676.417969 413.890625 676.417969 344.519531 C 676.417969 275.148438 622.269531 218.910156 555.480469 218.910156 " clip-rule="nonzero"/></clipPath><clipPath id="552c5d2270"><path d="M 0 64.085938 L 81.164062 64.085938 L 81.164062 190.730469 L 0 190.730469 Z M 0 64.085938 " clip-rule="nonzero"/></clipPath><clipPath id="986ac8f98d"><path d="M 17.84375 64.085938 C -17.128906 64.085938 -45.480469 92.4375 -45.480469 127.410156 C -45.480469 162.382812 -17.128906 190.730469 17.84375 190.730469 C 52.8125 190.730469 81.164062 162.382812 81.164062 127.410156 C 81.164062 92.4375 52.8125 64.085938 17.84375 64.085938 " clip-rule="nonzero"/></clipPath><clipPath id="a93114db82"><path d="M 0 68.03125 L 77.21875 68.03125 L 77.21875 186.785156 L 0 186.785156 Z M 0 68.03125 " clip-rule="nonzero"/></clipPath><clipPath id="7c8bd06db6"><path d="M 17.84375 68.03125 C -14.949219 68.03125 -41.535156 94.617188 -41.535156 127.410156 C -41.535156 160.203125 -14.949219 186.785156 17.84375 186.785156 C 50.636719 186.785156 77.21875 160.203125 77.21875 127.410156 C 77.21875 94.617188 50.636719 68.03125 17.84375 68.03125 " clip-rule="nonzero"/></clipPath><clipPath id="9ba880b606"><path d="M 10.722656 78.695312 L 100.132812 78.695312 L 100.132812 161.035156 L 10.722656 161.035156 Z M 10.722656 78.695312 " clip-rule="nonzero"/></clipPath><clipPath id="5de7bda2a3"><path d="M 100.132812 119.867188 L 10.816406 161.035156 L 10.816406 78.695312 L 100.132812 119.867188 " clip-rule="nonzero"/></clipPath><clipPath id="322b41e2fb"><path d="M 23.144531 119.867188 L 61.785156 119.867188 L 61.785156 158.503906 L 23.144531 158.503906 Z M 23.144531 119.867188 " clip-rule="nonzero"/></clipPath><clipPath id="187b7ef1a4"><path d="M 42.464844 158.503906 C 53.132812 158.503906 61.785156 149.855469 61.785156 139.1875 C 61.785156 128.515625 53.132812 119.867188 42.464844 119.867188 C 31.792969 119.867188 23.144531 128.515625 23.144531 139.1875 C 23.144531 149.855469 31.792969 158.503906 42.464844 158.503906 " clip-rule="nonzero"/></clipPath><clipPath id="be3a2ef19f"><path d="M 514.109375 0 L 586.300781 0 L 586.300781 52.183594 L 514.109375 52.183594 Z M 514.109375 0 " clip-rule="nonzero"/></clipPath><clipPath id="5d7c181d49"><path d="M 550.207031 -20.011719 C 530.269531 -20.011719 514.109375 -3.847656 514.109375 16.085938 C 514.109375 36.019531 530.269531 52.183594 550.207031 52.183594 C 570.140625 52.183594 586.300781 36.019531 586.300781 16.085938 C 586.300781 -3.847656 570.140625 -20.011719 550.207031 -20.011719 " clip-rule="nonzero"/></clipPath></defs><rect x="-60" width="720" fill="#ffffff" y="-29.999999" height="359.999986" fill-opacity="1"/><rect x="-60" width="720" fill="#ffffff" y="-29.999999" height="359.999986" fill-opacity="1"/><rect x="-60" width="720" fill="#ffffff" y="-29.999999" height="359.999986" fill-opacity="1"/><g clip-path="url(#4655dc1892)"><g clip-path="url(#9f93384c13)"><path fill="#292929" d="M 416.644531 205.683594 L 694.316406 205.683594 L 694.316406 483.355469 L 416.644531 483.355469 Z M 416.644531 205.683594 " fill-opacity="1" fill-rule="nonzero"/></g></g><g clip-path="url(#cca15d06ed)"><g clip-path="url(#892f34ce7e)"><path fill="#ffffff" d="M 434.542969 218.910156 L 676.601562 218.910156 L 676.601562 470.128906 L 434.542969 470.128906 Z M 434.542969 218.910156 " fill-opacity="1" fill-rule="nonzero"/></g></g><g clip-path="url(#552c5d2270)"><g clip-path="url(#986ac8f98d)"><path fill="#292929" d="M -45.480469 64.085938 L 81.164062 64.085938 L 81.164062 190.730469 L -45.480469 190.730469 Z M -45.480469 64.085938 " fill-opacity="1" fill-rule="nonzero"/></g></g><g clip-path="url(#a93114db82)"><g clip-path="url(#7c8bd06db6)"><path fill="#ffffff" d="M -41.535156 68.03125 L 77.21875 68.03125 L 77.21875 186.785156 L -41.535156 186.785156 Z M -41.535156 68.03125 " fill-opacity="1" fill-rule="nonzero"/></g></g><g clip-path="url(#9ba880b606)"><g clip-path="url(#5de7bda2a3)"><path fill="#bfc022" d="M 100.132812 78.695312 L 100.132812 161.035156 L 10.722656 161.035156 L 10.722656 78.695312 Z M 100.132812 78.695312 " fill-opacity="1" fill-rule="nonzero"/></g></g><g clip-path="url(#322b41e2fb)"><g clip-path="url(#187b7ef1a4)"><path fill="#eaccc2" d="M 61.785156 158.503906 L 23.144531 158.503906 L 23.144531 119.867188 L 61.785156 119.867188 Z M 61.785156 158.503906 " fill-opacity="1" fill-rule="nonzero"/></g></g><g clip-path="url(#be3a2ef19f)"><g clip-path="url(#5d7c181d49)"><path fill="#eaccc2" d="M 514.109375 -20.011719 L 586.300781 -20.011719 L 586.300781 52.183594 L 514.109375 52.183594 Z M 514.109375 -20.011719 " fill-opacity="1" fill-rule="nonzero"/></g></g><path stroke-linecap="butt" transform="matrix(0.747843, 0, 0, 0.75, 501.305371, 14.586295)" fill="none" stroke-linejoin="miter" d="M -0.000914043 0.999523 L 65.19704 0.999523 " stroke="#292929" stroke-width="2" stroke-opacity="1" stroke-miterlimit="4"/></svg>